<svg xmlns="http://www.w3.org/2000/svg" width="850" height="880" style="background:#1a1a2e">
<text x="425" y="28" fill="#ddd" font-size="16" text-anchor="middle" font-family="monospace" font-weight="bold">sz5gb_par2 — Time Series</text>
<text x="425" y="48" fill="#888" font-size="12" text-anchor="middle" font-family="monospace">5 GB download + par2 repair (3% missing)</text>
<text x="630" y="66" fill="#F5A623" font-size="11" font-family="monospace">— SABnzbd</text>
<text x="740" y="66" fill="#4A90D9" font-size="11" font-family="monospace">— rustnzbd</text><rect x="70" y="75" width="750" height="160" fill="#16213e" rx="4"/><text x="445" y="67" fill="#ddd" font-size="13" text-anchor="middle" font-family="monospace" font-weight="bold">CPU (%)</text><line x1="70" y1="235" x2="820" y2="235" stroke="#333" stroke-width="0.5"/><text x="66" y="238" fill="#888" font-size="8" text-anchor="end" font-family="monospace">0</text><line x1="70" y1="198" x2="820" y2="198" stroke="#333" stroke-width="0.5"/><text x="66" y="200.5" fill="#888" font-size="8" text-anchor="end" font-family="monospace">244</text><line x1="70" y1="160" x2="820" y2="160" stroke="#333" stroke-width="0.5"/><text x="66" y="163" fill="#888" font-size="8" text-anchor="end" font-family="monospace">487</text><line x1="70" y1="122" x2="820" y2="122" stroke="#333" stroke-width="0.5"/><text x="66" y="125.5" fill="#888" font-size="8" text-anchor="end" font-family="monospace">731</text><line x1="70" y1="85" x2="820" y2="85" stroke="#333" stroke-width="0.5"/><text x="66" y="88" fill="#888" font-size="8" text-anchor="end" font-family="monospace">974</text><polyline points="70.0,218.0 92.7,219.4 115.4,219.4 138.1,219.5 160.8,219.5 183.5,219.5 206.2,219.4 228.9,219.6 251.6,224.8 274.3,234.9 297.0,221.4 319.7,219.2 342.5,219.2 365.1,219.2 387.8,219.2 410.5,219.3 433.2,219.2 456.1,105.7 478.9,111.4 501.6,93.0 524.4,101.0 547.2,90.0 570.1,88.5 592.9,85.0 615.7,123.4 638.4,114.5 661.1,124.4 683.9,219.1 706.6,219.2 729.3,219.2 752.0,219.2 774.6,219.3 797.3,219.4 820.0,225.1" fill="none" stroke="#F5A623" stroke-width="2" opacity="0.9"/><polyline points="70.0,161.1 92.7,167.3 115.4,163.9 138.1,182.1" fill="none" stroke="#4A90D9" stroke-width="2" opacity="0.9"/><rect x="70" y="275" width="750" height="160" fill="#16213e" rx="4"/><text x="445" y="267" fill="#ddd" font-size="13" text-anchor="middle" font-family="monospace" font-weight="bold">Memory (MB)</text><line x1="70" y1="435" x2="820" y2="435" stroke="#333" stroke-width="0.5"/><text x="66" y="438" fill="#888" font-size="8" text-anchor="end" font-family="monospace">0</text><line x1="70" y1="398" x2="820" y2="398" stroke="#333" stroke-width="0.5"/><text x="66" y="400.5" fill="#888" font-size="8" text-anchor="end" font-family="monospace">316</text><line x1="70" y1="360" x2="820" y2="360" stroke="#333" stroke-width="0.5"/><text x="66" y="363" fill="#888" font-size="8" text-anchor="end" font-family="monospace">632</text><line x1="70" y1="322" x2="820" y2="322" stroke="#333" stroke-width="0.5"/><text x="66" y="325.5" fill="#888" font-size="8" text-anchor="end" font-family="monospace">947</text><line x1="70" y1="285" x2="820" y2="285" stroke="#333" stroke-width="0.5"/><text x="66" y="288" fill="#888" font-size="8" text-anchor="end" font-family="monospace">1263</text><polyline points="70.0,380.3 92.7,297.5 115.4,294.6 138.1,291.5 160.8,288.4 183.5,285.0 206.2,405.4 228.9,406.0 251.6,406.3 274.3,406.3 297.0,405.6 319.7,405.6 342.5,405.6 365.1,405.6 387.8,405.6 410.5,405.6 433.2,405.6 456.1,388.0 478.9,386.3 501.6,384.4 524.4,382.6 547.2,380.7 570.1,378.8 592.9,377.0 615.7,376.4 638.4,374.7 661.1,373.7 683.9,374.0 706.6,374.0 729.3,374.0 752.0,374.0 774.6,374.0 797.3,374.0 820.0,408.3" fill="none" stroke="#F5A623" stroke-width="2" opacity="0.9"/><polyline points="70.0,421.5 92.7,416.7 115.4,411.7 138.1,410.2" fill="none" stroke="#4A90D9" stroke-width="2" opacity="0.9"/><rect x="70" y="475" width="750" height="160" fill="#16213e" rx="4"/><text x="445" y="467" fill="#ddd" font-size="13" text-anchor="middle" font-family="monospace" font-weight="bold">Net RX (Mbps)</text><line x1="70" y1="635" x2="820" y2="635" stroke="#333" stroke-width="0.5"/><text x="66" y="638" fill="#888" font-size="8" text-anchor="end" font-family="monospace">0</text><line x1="70" y1="598" x2="820" y2="598" stroke="#333" stroke-width="0.5"/><text x="66" y="600.5" fill="#888" font-size="8" text-anchor="end" font-family="monospace">3161</text><line x1="70" y1="560" x2="820" y2="560" stroke="#333" stroke-width="0.5"/><text x="66" y="563" fill="#888" font-size="8" text-anchor="end" font-family="monospace">6323</text><line x1="70" y1="522" x2="820" y2="522" stroke="#333" stroke-width="0.5"/><text x="66" y="525.5" fill="#888" font-size="8" text-anchor="end" font-family="monospace">9484</text><line x1="70" y1="485" x2="820" y2="485" stroke="#333" stroke-width="0.5"/><text x="66" y="488" fill="#888" font-size="8" text-anchor="end" font-family="monospace">12646</text><polyline points="70.0,553.7 92.7,527.2 115.4,547.5 138.1,542.9 160.8,550.6 183.5,543.5 206.2,627.5 228.9,635.0 251.6,635.0 274.3,635.0 297.0,635.0 319.7,635.0 342.5,635.0 365.1,635.0 387.8,635.0 410.5,635.0 433.2,635.0 456.1,635.0 478.9,635.0 501.6,635.0 524.4,635.0 547.2,635.0 570.1,635.0 592.9,635.0 615.7,635.0 638.4,635.0 661.1,635.0 683.9,635.0 706.6,635.0 729.3,635.0 752.0,635.0 774.6,635.0 797.3,635.0 820.0,635.0" fill="none" stroke="#F5A623" stroke-width="2" opacity="0.9"/><polyline points="70.0,485.0 92.7,485.8 115.4,494.4 138.1,522.4" fill="none" stroke="#4A90D9" stroke-width="2" opacity="0.9"/><rect x="70" y="675" width="750" height="160" fill="#16213e" rx="4"/><text x="445" y="667" fill="#ddd" font-size="13" text-anchor="middle" font-family="monospace" font-weight="bold">Disk Write (MB/s)</text><line x1="70" y1="835" x2="820" y2="835" stroke="#333" stroke-width="0.5"/><text x="66" y="838" fill="#888" font-size="8" text-anchor="end" font-family="monospace">0</text><line x1="70" y1="798" x2="820" y2="798" stroke="#333" stroke-width="0.5"/><text x="66" y="800.5" fill="#888" font-size="8" text-anchor="end" font-family="monospace">659</text><line x1="70" y1="760" x2="820" y2="760" stroke="#333" stroke-width="0.5"/><text x="66" y="763" fill="#888" font-size="8" text-anchor="end" font-family="monospace">1318</text><line x1="70" y1="722" x2="820" y2="722" stroke="#333" stroke-width="0.5"/><text x="66" y="725.5" fill="#888" font-size="8" text-anchor="end" font-family="monospace">1977</text><line x1="70" y1="685" x2="820" y2="685" stroke="#333" stroke-width="0.5"/><text x="66" y="688" fill="#888" font-size="8" text-anchor="end" font-family="monospace">2636</text><polyline points="70.0,835.0 92.7,813.4 115.4,786.4 138.1,783.8 160.8,788.0 183.5,784.0 206.2,830.1 228.9,793.8 251.6,781.1 274.3,719.1 297.0,740.1 319.7,835.0 342.5,835.0 365.1,835.0 387.8,835.0 410.5,835.0 433.2,835.0 456.1,835.0 478.9,835.0 501.6,835.0 524.4,835.0 547.2,835.0 570.1,835.0 592.9,835.0 615.7,795.1 638.4,685.0 661.1,754.1 683.9,835.0 706.6,835.0 729.3,835.0 752.0,835.0 774.6,835.0 797.3,835.0 820.0,835.0" fill="none" stroke="#F5A623" stroke-width="2" opacity="0.9"/><polyline points="70.0,835.0 92.7,835.0 115.4,783.7 138.1,803.2" fill="none" stroke="#4A90D9" stroke-width="2" opacity="0.9"/></svg>