<svg xmlns="http://www.w3.org/2000/svg" width="1100" height="650" style="background:#1a1a2e">
<text x="550" y="28" fill="#ddd" font-size="18" text-anchor="middle" font-family="monospace" font-weight="bold">Benchmark Dashboard: SABnzbd vs rustnzbd</text>
<text x="60" y="55" fill="#F5A623" font-size="12" font-family="monospace">■ SABnzbd</text>
<text x="180" y="55" fill="#4A90D9" font-size="12" font-family="monospace">■ rustnzbd</text><text x="320" y="75" fill="#888" font-size="10" font-family="monospace">Total Time (s)</text><text x="510" y="75" fill="#888" font-size="10" font-family="monospace">Avg Speed (Mbps)</text><text x="700" y="75" fill="#888" font-size="10" font-family="monospace">CPU Peak (%)</text><text x="890" y="75" fill="#888" font-size="10" font-family="monospace">Mem Peak (MB)</text><line x1="10" y1="82" x2="1090" y2="82" stroke="#333" stroke-width="1"/><text x="15" y="108" fill="#ddd" font-size="11" font-family="monospace" font-weight="bold">sz5gb_raw</text><text x="15" y="122" fill="#888" font-size="9" font-family="monospace">5 GB raw download</text><rect x="320" y="95" width="140" height="14" fill="#F5A623" opacity="0.9" rx="2"/><rect x="320" y="112" width="81" height="14" fill="#4A90D9" opacity="0.9" rx="2"/><text x="463" y="105" fill="#ddd" font-size="8" font-family="monospace">7.1</text><text x="403.5774684656164" y="122" fill="#ddd" font-size="8" font-family="monospace">4.1</text><rect x="510" y="95" width="81" height="14" fill="#F5A623" opacity="0.9" rx="2"/><rect x="510" y="112" width="140" height="14" fill="#4A90D9" opacity="0.9" rx="2"/><text x="593.5774684656164" y="105" fill="#ddd" font-size="8" font-family="monospace">6091.6</text><text x="653" y="122" fill="#ddd" font-size="8" font-family="monospace">10583.9</text><rect x="700" y="95" width="46" height="14" fill="#F5A623" opacity="0.9" rx="2"/><rect x="700" y="112" width="140" height="14" fill="#4A90D9" opacity="0.9" rx="2"/><text x="748.951747795895" y="105" fill="#ddd" font-size="8" font-family="monospace">163.6</text><text x="843" y="122" fill="#ddd" font-size="8" font-family="monospace">498.4</text><rect x="890" y="95" width="140" height="14" fill="#F5A623" opacity="0.9" rx="2"/><rect x="890" y="112" width="124" height="14" fill="#4A90D9" opacity="0.9" rx="2"/><text x="1033" y="105" fill="#ddd" font-size="8" font-family="monospace">226.2</text><text x="1017.0492556388381" y="122" fill="#ddd" font-size="8" font-family="monospace">200.4</text><line x1="10" y1="175" x2="1090" y2="175" stroke="#333" stroke-width="1"/><text x="15" y="198" fill="#ddd" font-size="11" font-family="monospace" font-weight="bold">sz5gb_par2</text><text x="15" y="212" fill="#888" font-size="9" font-family="monospace">5 GB download + par2 repair (3% missing)</text><rect x="320" y="185" width="18" height="14" fill="#F5A623" opacity="0.9" rx="2"/><rect x="320" y="202" width="140" height="14" fill="#4A90D9" opacity="0.9" rx="2"/><text x="340.6025360321736" y="195" fill="#ddd" font-size="8" font-family="monospace">30.4</text><text x="463" y="212" fill="#ddd" font-size="8" font-family="monospace">241.6</text><rect x="510" y="185" width="140" height="14" fill="#F5A623" opacity="0.9" rx="2"/><rect x="510" y="202" width="18" height="14" fill="#4A90D9" opacity="0.9" rx="2"/><text x="653" y="195" fill="#ddd" font-size="8" font-family="monospace">1413.7</text><text x="530.6025360321736" y="212" fill="#ddd" font-size="8" font-family="monospace">177.7</text><rect x="700" y="185" width="102" height="14" fill="#F5A623" opacity="0.9" rx="2"/><rect x="700" y="202" width="140" height="14" fill="#4A90D9" opacity="0.9" rx="2"/><text x="804.988609437479" y="195" fill="#ddd" font-size="8" font-family="monospace">1288.4</text><text x="843" y="212" fill="#ddd" font-size="8" font-family="monospace">1768.6</text><rect x="890" y="185" width="140" height="14" fill="#F5A623" opacity="0.9" rx="2"/><rect x="890" y="202" width="58" height="14" fill="#4A90D9" opacity="0.9" rx="2"/><text x="1033" y="195" fill="#ddd" font-size="8" font-family="monospace">1251.0</text><text x="951.0024542329273" y="212" fill="#ddd" font-size="8" font-family="monospace">518.3</text><line x1="10" y1="265" x2="1090" y2="265" stroke="#333" stroke-width="1"/><text x="15" y="288" fill="#ddd" font-size="11" font-family="monospace" font-weight="bold">sz5gb_unpack</text><text x="15" y="302" fill="#888" font-size="9" font-family="monospace">5 GB download + 7z extraction</text><rect x="320" y="275" width="36" height="14" fill="#F5A623" opacity="0.9" rx="2"/><rect x="320" y="292" width="140" height="14" fill="#4A90D9" opacity="0.9" rx="2"/><text x="359.24197469828425" y="285" fill="#ddd" font-size="8" font-family="monospace">8.1</text><text x="463" y="302" fill="#ddd" font-size="8" font-family="monospace">31.1</text><rect x="510" y="275" width="140" height="14" fill="#F5A623" opacity="0.9" rx="2"/><rect x="510" y="292" width="36" height="14" fill="#4A90D9" opacity="0.9" rx="2"/><text x="653" y="285" fill="#ddd" font-size="8" font-family="monospace">5331.1</text><text x="549.2419746982843" y="302" fill="#ddd" font-size="8" font-family="monospace">1380.1</text><rect x="700" y="275" width="46" height="14" fill="#F5A623" opacity="0.9" rx="2"/><rect x="700" y="292" width="140" height="14" fill="#4A90D9" opacity="0.9" rx="2"/><text x="748.7653097482598" y="285" fill="#ddd" font-size="8" font-family="monospace">148.1</text><text x="843" y="302" fill="#ddd" font-size="8" font-family="monospace">453.1</text><rect x="890" y="275" width="120" height="14" fill="#F5A623" opacity="0.9" rx="2"/><rect x="890" y="292" width="140" height="14" fill="#4A90D9" opacity="0.9" rx="2"/><text x="1013.2646893377653" y="285" fill="#ddd" font-size="8" font-family="monospace">328.1</text><text x="1033" y="302" fill="#ddd" font-size="8" font-family="monospace">381.9</text><line x1="10" y1="355" x2="1090" y2="355" stroke="#333" stroke-width="1"/><text x="15" y="378" fill="#ddd" font-size="11" font-family="monospace" font-weight="bold">sz10gb_raw</text><text x="15" y="392" fill="#888" font-size="9" font-family="monospace">10 GB raw download</text><rect x="320" y="365" width="140" height="14" fill="#F5A623" opacity="0.9" rx="2"/><rect x="320" y="382" width="115" height="14" fill="#4A90D9" opacity="0.9" rx="2"/><text x="463" y="375" fill="#ddd" font-size="8" font-family="monospace">9.1</text><text x="438.11154052330977" y="392" fill="#ddd" font-size="8" font-family="monospace">7.4</text><rect x="510" y="365" width="115" height="14" fill="#F5A623" opacity="0.9" rx="2"/><rect x="510" y="382" width="140" height="14" fill="#4A90D9" opacity="0.9" rx="2"/><text x="628.1115405233098" y="375" fill="#ddd" font-size="8" font-family="monospace">9490.2</text><text x="653" y="392" fill="#ddd" font-size="8" font-family="monospace">11542.1</text><rect x="700" y="365" width="45" height="14" fill="#F5A623" opacity="0.9" rx="2"/><rect x="700" y="382" width="140" height="14" fill="#4A90D9" opacity="0.9" rx="2"/><text x="747.5905616578034" y="375" fill="#ddd" font-size="8" font-family="monospace">149.5</text><text x="843" y="392" fill="#ddd" font-size="8" font-family="monospace">469.3</text><rect x="890" y="365" width="140" height="14" fill="#F5A623" opacity="0.9" rx="2"/><rect x="890" y="382" width="135" height="14" fill="#4A90D9" opacity="0.9" rx="2"/><text x="1033" y="375" fill="#ddd" font-size="8" font-family="monospace">411.8</text><text x="1028.3809230185457" y="392" fill="#ddd" font-size="8" font-family="monospace">398.2</text><line x1="10" y1="445" x2="1090" y2="445" stroke="#333" stroke-width="1"/><text x="15" y="468" fill="#ddd" font-size="11" font-family="monospace" font-weight="bold">sz10gb_par2</text><text x="15" y="482" fill="#888" font-size="9" font-family="monospace">10 GB download + par2 repair (3% missing)</text><rect x="320" y="455" width="13" height="14" fill="#F5A623" opacity="0.9" rx="2"/><rect x="320" y="472" width="140" height="14" fill="#4A90D9" opacity="0.9" rx="2"/><text x="336.3786940484665" y="465" fill="#ddd" font-size="8" font-family="monospace">77.4</text><text x="463" y="482" fill="#ddd" font-size="8" font-family="monospace">810.0</text><rect x="510" y="455" width="140" height="14" fill="#F5A623" opacity="0.9" rx="2"/><rect x="510" y="472" width="13" height="14" fill="#4A90D9" opacity="0.9" rx="2"/><text x="653" y="465" fill="#ddd" font-size="8" font-family="monospace">1109.8</text><text x="526.3786940484665" y="482" fill="#ddd" font-size="8" font-family="monospace">106.1</text><rect x="700" y="455" width="115" height="14" fill="#F5A623" opacity="0.9" rx="2"/><rect x="700" y="472" width="140" height="14" fill="#4A90D9" opacity="0.9" rx="2"/><text x="817.8471550566513" y="465" fill="#ddd" font-size="8" font-family="monospace">1425.5</text><text x="843" y="482" fill="#ddd" font-size="8" font-family="monospace">1737.7</text><rect x="890" y="455" width="140" height="14" fill="#F5A623" opacity="0.9" rx="2"/><rect x="890" y="472" width="88" height="14" fill="#4A90D9" opacity="0.9" rx="2"/><text x="1033" y="465" fill="#ddd" font-size="8" font-family="monospace">1397.9</text><text x="980.7555012224939" y="482" fill="#ddd" font-size="8" font-family="monospace">876.3</text><line x1="10" y1="535" x2="1090" y2="535" stroke="#333" stroke-width="1"/><text x="15" y="558" fill="#ddd" font-size="11" font-family="monospace" font-weight="bold">sz10gb_unpack</text><text x="15" y="572" fill="#888" font-size="9" font-family="monospace">10 GB download + 7z extraction</text><rect x="320" y="545" width="35" height="14" fill="#F5A623" opacity="0.9" rx="2"/><rect x="320" y="562" width="140" height="14" fill="#4A90D9" opacity="0.9" rx="2"/><text x="357.77505628079456" y="555" fill="#ddd" font-size="8" font-family="monospace">16.1</text><text x="463" y="572" fill="#ddd" font-size="8" font-family="monospace">64.8</text><rect x="510" y="545" width="140" height="14" fill="#F5A623" opacity="0.9" rx="2"/><rect x="510" y="562" width="35" height="14" fill="#4A90D9" opacity="0.9" rx="2"/><text x="653" y="555" fill="#ddd" font-size="8" font-family="monospace">5334.7</text><text x="547.7750562807946" y="572" fill="#ddd" font-size="8" font-family="monospace">1325.1</text><rect x="700" y="545" width="64" height="14" fill="#F5A623" opacity="0.9" rx="2"/><rect x="700" y="562" width="140" height="14" fill="#4A90D9" opacity="0.9" rx="2"/><text x="767.1314969030495" y="555" fill="#ddd" font-size="8" font-family="monospace">177.8</text><text x="843" y="572" fill="#ddd" font-size="8" font-family="monospace">388.1</text><rect x="890" y="545" width="83" height="14" fill="#F5A623" opacity="0.9" rx="2"/><rect x="890" y="562" width="140" height="14" fill="#4A90D9" opacity="0.9" rx="2"/><text x="975.7909225710786" y="555" fill="#ddd" font-size="8" font-family="monospace">501.6</text><text x="1033" y="572" fill="#ddd" font-size="8" font-family="monospace">848.3</text></svg>