<svg xmlns="http://www.w3.org/2000/svg" width="850" height="880" style="background:#1a1a2e">
<text x="425" y="28" fill="#ddd" font-size="16" text-anchor="middle" font-family="monospace" font-weight="bold">sz5gb_unpack — Time Series</text>
<text x="425" y="48" fill="#888" font-size="12" text-anchor="middle" font-family="monospace">5 GB download + 7z extraction</text>
<text x="630" y="66" fill="#F5A623" font-size="11" font-family="monospace">— SABnzbd</text>
<text x="740" y="66" fill="#4A90D9" font-size="11" font-family="monospace">— rustnzbd</text><rect x="70" y="75" width="750" height="160" fill="#16213e" rx="4"/><text x="445" y="67" fill="#ddd" font-size="13" text-anchor="middle" font-family="monospace" font-weight="bold">CPU (%)</text><line x1="70" y1="235" x2="820" y2="235" stroke="#333" stroke-width="0.5"/><text x="66" y="238" fill="#888" font-size="8" text-anchor="end" font-family="monospace">0</text><line x1="70" y1="198" x2="820" y2="198" stroke="#333" stroke-width="0.5"/><text x="66" y="200.5" fill="#888" font-size="8" text-anchor="end" font-family="monospace">113</text><line x1="70" y1="160" x2="820" y2="160" stroke="#333" stroke-width="0.5"/><text x="66" y="163" fill="#888" font-size="8" text-anchor="end" font-family="monospace">227</text><line x1="70" y1="122" x2="820" y2="122" stroke="#333" stroke-width="0.5"/><text x="66" y="125.5" fill="#888" font-size="8" text-anchor="end" font-family="monospace">340</text><line x1="70" y1="85" x2="820" y2="85" stroke="#333" stroke-width="0.5"/><text x="66" y="88" fill="#888" font-size="8" text-anchor="end" font-family="monospace">453</text><polyline points="70.0,191.9 95.0,186.0 120.0,186.0 145.1,186.2 170.1,209.9 195.1,209.0 220.1,202.2 245.1,203.7" fill="none" stroke="#F5A623" stroke-width="2" opacity="0.9"/><polyline points="70.0,85.0 95.0,107.6 120.1,104.1 145.1,113.6 170.1,184.9 195.1,201.6 220.1,201.6 245.1,201.7 270.1,201.7 295.1,202.4 320.0,202.0 345.0,201.9 370.0,202.1 395.0,202.2 420.0,202.1 445.0,201.9 470.0,202.0 495.0,201.8 520.0,201.8 545.0,201.8 570.0,201.8 595.0,201.7 620.0,201.6 645.0,201.7 670.0,201.7 695.0,201.8 720.0,201.7 745.0,202.0 770.0,201.7 795.0,202.1 820.0,218.2" fill="none" stroke="#4A90D9" stroke-width="2" opacity="0.9"/><rect x="70" y="275" width="750" height="160" fill="#16213e" rx="4"/><text x="445" y="267" fill="#ddd" font-size="13" text-anchor="middle" font-family="monospace" font-weight="bold">Memory (MB)</text><line x1="70" y1="435" x2="820" y2="435" stroke="#333" stroke-width="0.5"/><text x="66" y="438" fill="#888" font-size="8" text-anchor="end" font-family="monospace">0</text><line x1="70" y1="398" x2="820" y2="398" stroke="#333" stroke-width="0.5"/><text x="66" y="400.5" fill="#888" font-size="8" text-anchor="end" font-family="monospace">95</text><line x1="70" y1="360" x2="820" y2="360" stroke="#333" stroke-width="0.5"/><text x="66" y="363" fill="#888" font-size="8" text-anchor="end" font-family="monospace">191</text><line x1="70" y1="322" x2="820" y2="322" stroke="#333" stroke-width="0.5"/><text x="66" y="325.5" fill="#888" font-size="8" text-anchor="end" font-family="monospace">286</text><line x1="70" y1="285" x2="820" y2="285" stroke="#333" stroke-width="0.5"/><text x="66" y="288" fill="#888" font-size="8" text-anchor="end" font-family="monospace">382</text><polyline points="70.0,382.2 95.0,361.7 120.0,346.7 145.1,345.0 170.1,342.5 195.1,329.5 220.1,306.1 245.1,345.7" fill="none" stroke="#F5A623" stroke-width="2" opacity="0.9"/><polyline points="70.0,379.2 95.0,362.8 120.1,347.9 145.1,338.6 170.1,338.6 195.1,338.8 220.1,338.8 245.1,338.9 270.1,338.9 295.1,338.9 320.0,339.1 345.0,339.1 370.0,339.1 395.0,339.1 420.0,339.1 445.0,339.1 470.0,339.1 495.0,339.1 520.0,339.1 545.0,339.1 570.0,339.1 595.0,339.1 620.0,339.1 645.0,339.1 670.0,339.0 695.0,339.0 720.0,339.1 745.0,331.3 770.0,310.5 795.0,290.0 820.0,285.0" fill="none" stroke="#4A90D9" stroke-width="2" opacity="0.9"/><rect x="70" y="475" width="750" height="160" fill="#16213e" rx="4"/><text x="445" y="467" fill="#ddd" font-size="13" text-anchor="middle" font-family="monospace" font-weight="bold">Net RX (Mbps)</text><line x1="70" y1="635" x2="820" y2="635" stroke="#333" stroke-width="0.5"/><text x="66" y="638" fill="#888" font-size="8" text-anchor="end" font-family="monospace">0</text><line x1="70" y1="598" x2="820" y2="598" stroke="#333" stroke-width="0.5"/><text x="66" y="600.5" fill="#888" font-size="8" text-anchor="end" font-family="monospace">3224</text><line x1="70" y1="560" x2="820" y2="560" stroke="#333" stroke-width="0.5"/><text x="66" y="563" fill="#888" font-size="8" text-anchor="end" font-family="monospace">6448</text><line x1="70" y1="522" x2="820" y2="522" stroke="#333" stroke-width="0.5"/><text x="66" y="525.5" fill="#888" font-size="8" text-anchor="end" font-family="monospace">9672</text><line x1="70" y1="485" x2="820" y2="485" stroke="#333" stroke-width="0.5"/><text x="66" y="488" fill="#888" font-size="8" text-anchor="end" font-family="monospace">12896</text><polyline points="70.0,529.6 95.0,508.1 120.0,516.6 145.1,523.2 170.1,581.8 195.1,635.0 220.1,635.0 245.1,635.0" fill="none" stroke="#F5A623" stroke-width="2" opacity="0.9"/><polyline points="70.0,485.0 95.0,497.9 120.1,494.1 145.1,506.2 170.1,635.0 195.1,635.0 220.1,635.0 245.1,635.0 270.1,635.0 295.1,635.0 320.0,635.0 345.0,635.0 370.0,635.0 395.0,635.0 420.0,635.0 445.0,635.0 470.0,635.0 495.0,635.0 520.0,635.0 545.0,635.0 570.0,635.0 595.0,635.0 620.0,635.0 645.0,635.0 670.0,635.0 695.0,635.0 720.0,635.0 745.0,635.0 770.0,635.0 795.0,635.0 820.0,635.0" fill="none" stroke="#4A90D9" stroke-width="2" opacity="0.9"/><rect x="70" y="675" width="750" height="160" fill="#16213e" rx="4"/><text x="445" y="667" fill="#ddd" font-size="13" text-anchor="middle" font-family="monospace" font-weight="bold">Disk Write (MB/s)</text><line x1="70" y1="835" x2="820" y2="835" stroke="#333" stroke-width="0.5"/><text x="66" y="838" fill="#888" font-size="8" text-anchor="end" font-family="monospace">0</text><line x1="70" y1="798" x2="820" y2="798" stroke="#333" stroke-width="0.5"/><text x="66" y="800.5" fill="#888" font-size="8" text-anchor="end" font-family="monospace">785</text><line x1="70" y1="760" x2="820" y2="760" stroke="#333" stroke-width="0.5"/><text x="66" y="763" fill="#888" font-size="8" text-anchor="end" font-family="monospace">1570</text><line x1="70" y1="722" x2="820" y2="722" stroke="#333" stroke-width="0.5"/><text x="66" y="725.5" fill="#888" font-size="8" text-anchor="end" font-family="monospace">2355</text><line x1="70" y1="685" x2="820" y2="685" stroke="#333" stroke-width="0.5"/><text x="66" y="688" fill="#888" font-size="8" text-anchor="end" font-family="monospace">3139</text><polyline points="70.0,835.0 95.0,835.0 120.0,835.0 145.1,802.2 170.1,802.5 195.1,764.7 220.1,737.7 245.1,759.1" fill="none" stroke="#F5A623" stroke-width="2" opacity="0.9"/><polyline points="70.0,835.0 95.0,784.6 120.1,835.0 145.1,772.9 170.1,835.0 195.1,835.0 220.1,835.0 245.1,833.3 270.1,685.0 295.1,835.0 320.0,835.0 345.0,835.0 370.0,835.0 395.0,835.0 420.0,835.0 445.0,835.0 470.0,835.0 495.0,835.0 520.0,835.0 545.0,835.0 570.0,835.0 595.0,835.0 620.0,835.0 645.0,835.0 670.0,835.0 695.0,835.0 720.0,835.0 745.0,835.0 770.0,835.0 795.0,813.8 820.0,792.5" fill="none" stroke="#4A90D9" stroke-width="2" opacity="0.9"/></svg>