<svg xmlns="http://www.w3.org/2000/svg" width="850" height="880" style="background:#1a1a2e">
<text x="425" y="28" fill="#ddd" font-size="16" text-anchor="middle" font-family="monospace" font-weight="bold">sz5gb_raw — Time Series</text>
<text x="425" y="48" fill="#888" font-size="12" text-anchor="middle" font-family="monospace">5 GB raw download</text>
<text x="630" y="66" fill="#F5A623" font-size="11" font-family="monospace">— SABnzbd</text>
<text x="740" y="66" fill="#4A90D9" font-size="11" font-family="monospace">— rustnzbd</text><rect x="70" y="75" width="750" height="160" fill="#16213e" rx="4"/><text x="445" y="67" fill="#ddd" font-size="13" text-anchor="middle" font-family="monospace" font-weight="bold">CPU (%)</text><line x1="70" y1="235" x2="820" y2="235" stroke="#333" stroke-width="0.5"/><text x="66" y="238" fill="#888" font-size="8" text-anchor="end" font-family="monospace">0</text><line x1="70" y1="198" x2="820" y2="198" stroke="#333" stroke-width="0.5"/><text x="66" y="200.5" fill="#888" font-size="8" text-anchor="end" font-family="monospace">125</text><line x1="70" y1="160" x2="820" y2="160" stroke="#333" stroke-width="0.5"/><text x="66" y="163" fill="#888" font-size="8" text-anchor="end" font-family="monospace">249</text><line x1="70" y1="122" x2="820" y2="122" stroke="#333" stroke-width="0.5"/><text x="66" y="125.5" fill="#888" font-size="8" text-anchor="end" font-family="monospace">374</text><line x1="70" y1="85" x2="820" y2="85" stroke="#333" stroke-width="0.5"/><text x="66" y="88" fill="#888" font-size="8" text-anchor="end" font-family="monospace">498</text><polyline points="70.0,200.5 195.0,189.7 320.1,189.9 445.1,185.8 570.1,204.4 695.0,234.8 820.0,233.0" fill="none" stroke="#F5A623" stroke-width="2" opacity="0.9"/><polyline points="70.0,85.0 195.1,111.0 320.2,117.3 445.1,165.6" fill="none" stroke="#4A90D9" stroke-width="2" opacity="0.9"/><rect x="70" y="275" width="750" height="160" fill="#16213e" rx="4"/><text x="445" y="267" fill="#ddd" font-size="13" text-anchor="middle" font-family="monospace" font-weight="bold">Memory (MB)</text><line x1="70" y1="435" x2="820" y2="435" stroke="#333" stroke-width="0.5"/><text x="66" y="438" fill="#888" font-size="8" text-anchor="end" font-family="monospace">0</text><line x1="70" y1="398" x2="820" y2="398" stroke="#333" stroke-width="0.5"/><text x="66" y="400.5" fill="#888" font-size="8" text-anchor="end" font-family="monospace">57</text><line x1="70" y1="360" x2="820" y2="360" stroke="#333" stroke-width="0.5"/><text x="66" y="363" fill="#888" font-size="8" text-anchor="end" font-family="monospace">113</text><line x1="70" y1="322" x2="820" y2="322" stroke="#333" stroke-width="0.5"/><text x="66" y="325.5" fill="#888" font-size="8" text-anchor="end" font-family="monospace">170</text><line x1="70" y1="285" x2="820" y2="285" stroke="#333" stroke-width="0.5"/><text x="66" y="288" fill="#888" font-size="8" text-anchor="end" font-family="monospace">226</text><polyline points="70.0,345.8 195.0,310.7 320.1,310.7 445.1,285.3 570.1,285.0 695.0,285.4 820.0,293.6" fill="none" stroke="#F5A623" stroke-width="2" opacity="0.9"/><polyline points="70.0,364.0 195.1,331.8 320.2,308.6 445.1,302.1" fill="none" stroke="#4A90D9" stroke-width="2" opacity="0.9"/><rect x="70" y="475" width="750" height="160" fill="#16213e" rx="4"/><text x="445" y="467" fill="#ddd" font-size="13" text-anchor="middle" font-family="monospace" font-weight="bold">Net RX (Mbps)</text><line x1="70" y1="635" x2="820" y2="635" stroke="#333" stroke-width="0.5"/><text x="66" y="638" fill="#888" font-size="8" text-anchor="end" font-family="monospace">0</text><line x1="70" y1="598" x2="820" y2="598" stroke="#333" stroke-width="0.5"/><text x="66" y="600.5" fill="#888" font-size="8" text-anchor="end" font-family="monospace">3323</text><line x1="70" y1="560" x2="820" y2="560" stroke="#333" stroke-width="0.5"/><text x="66" y="563" fill="#888" font-size="8" text-anchor="end" font-family="monospace">6647</text><line x1="70" y1="522" x2="820" y2="522" stroke="#333" stroke-width="0.5"/><text x="66" y="525.5" fill="#888" font-size="8" text-anchor="end" font-family="monospace">9970</text><line x1="70" y1="485" x2="820" y2="485" stroke="#333" stroke-width="0.5"/><text x="66" y="488" fill="#888" font-size="8" text-anchor="end" font-family="monospace">13293</text><polyline points="70.0,546.9 195.0,523.1 320.1,523.9 445.1,519.0 570.1,562.5 695.0,635.0 820.0,635.0" fill="none" stroke="#F5A623" stroke-width="2" opacity="0.9"/><polyline points="70.0,485.0 195.1,503.7 320.2,498.9 445.1,553.0" fill="none" stroke="#4A90D9" stroke-width="2" opacity="0.9"/><rect x="70" y="675" width="750" height="160" fill="#16213e" rx="4"/><text x="445" y="667" fill="#ddd" font-size="13" text-anchor="middle" font-family="monospace" font-weight="bold">Disk Write (MB/s)</text><line x1="70" y1="835" x2="820" y2="835" stroke="#333" stroke-width="0.5"/><text x="66" y="838" fill="#888" font-size="8" text-anchor="end" font-family="monospace">0</text><line x1="70" y1="798" x2="820" y2="798" stroke="#333" stroke-width="0.5"/><text x="66" y="800.5" fill="#888" font-size="8" text-anchor="end" font-family="monospace">216</text><line x1="70" y1="760" x2="820" y2="760" stroke="#333" stroke-width="0.5"/><text x="66" y="763" fill="#888" font-size="8" text-anchor="end" font-family="monospace">432</text><line x1="70" y1="722" x2="820" y2="722" stroke="#333" stroke-width="0.5"/><text x="66" y="725.5" fill="#888" font-size="8" text-anchor="end" font-family="monospace">648</text><line x1="70" y1="685" x2="820" y2="685" stroke="#333" stroke-width="0.5"/><text x="66" y="688" fill="#888" font-size="8" text-anchor="end" font-family="monospace">864</text><polyline points="70.0,835.0 195.0,835.0 320.1,835.0 445.1,751.8 570.1,730.9 695.0,835.0 820.0,835.0" fill="none" stroke="#F5A623" stroke-width="2" opacity="0.9"/><polyline points="70.0,835.0 195.1,785.0 320.2,835.0 445.1,685.0" fill="none" stroke="#4A90D9" stroke-width="2" opacity="0.9"/></svg>