<svg xmlns="http://www.w3.org/2000/svg" width="1100" height="650" style="background:#1a1a2e">
<text x="550" y="28" fill="#ddd" font-size="18" text-anchor="middle" font-family="monospace" font-weight="bold">Benchmark Dashboard: SABnzbd vs rustnzbd</text>
<text x="60" y="55" fill="#F5A623" font-size="12" font-family="monospace">■ SABnzbd</text>
<text x="180" y="55" fill="#4A90D9" font-size="12" font-family="monospace">■ rustnzbd</text><text x="320" y="75" fill="#888" font-size="10" font-family="monospace">Total Time (s)</text><text x="510" y="75" fill="#888" font-size="10" font-family="monospace">Avg Speed (Mbps)</text><text x="700" y="75" fill="#888" font-size="10" font-family="monospace">CPU Peak (%)</text><text x="890" y="75" fill="#888" font-size="10" font-family="monospace">Mem Peak (MB)</text><line x1="10" y1="82" x2="1090" y2="82" stroke="#333" stroke-width="1"/><text x="15" y="108" fill="#ddd" font-size="11" font-family="monospace" font-weight="bold">sz5gb_raw</text><text x="15" y="122" fill="#888" font-size="9" font-family="monospace">5 GB raw download</text><rect x="320" y="95" width="140" height="14" fill="#F5A623" opacity="0.9" rx="2"/><rect x="320" y="112" width="94" height="14" fill="#4A90D9" opacity="0.9" rx="2"/><text x="463" y="105" fill="#ddd" font-size="8" font-family="monospace">6.0</text><text x="417.02248204640875" y="122" fill="#ddd" font-size="8" font-family="monospace">4.1</text><rect x="510" y="95" width="94" height="14" fill="#F5A623" opacity="0.9" rx="2"/><rect x="510" y="112" width="140" height="14" fill="#4A90D9" opacity="0.9" rx="2"/><text x="607.0224820464088" y="105" fill="#ddd" font-size="8" font-family="monospace">7108.4</text><text x="653" y="122" fill="#ddd" font-size="8" font-family="monospace">10584.4</text><rect x="700" y="95" width="46" height="14" fill="#F5A623" opacity="0.9" rx="2"/><rect x="700" y="112" width="140" height="14" fill="#4A90D9" opacity="0.9" rx="2"/><text x="748.5611940037213" y="105" fill="#ddd" font-size="8" font-family="monospace">150.4</text><text x="843" y="122" fill="#ddd" font-size="8" font-family="monospace">462.1</text><rect x="890" y="95" width="140" height="14" fill="#F5A623" opacity="0.9" rx="2"/><rect x="890" y="112" width="119" height="14" fill="#4A90D9" opacity="0.9" rx="2"/><text x="1033" y="105" fill="#ddd" font-size="8" font-family="monospace">228.1</text><text x="1012.0985375209782" y="122" fill="#ddd" font-size="8" font-family="monospace">194.0</text><line x1="10" y1="175" x2="1090" y2="175" stroke="#333" stroke-width="1"/><text x="15" y="198" fill="#ddd" font-size="11" font-family="monospace" font-weight="bold">sz5gb_par2</text><text x="15" y="212" fill="#888" font-size="9" font-family="monospace">5 GB download + par2 repair (3% missing)</text><rect x="320" y="185" width="140" height="14" fill="#F5A623" opacity="0.9" rx="2"/><rect x="320" y="202" width="23" height="14" fill="#4A90D9" opacity="0.9" rx="2"/><text x="463" y="195" fill="#ddd" font-size="8" font-family="monospace">31.4</text><text x="346.0118699330204" y="212" fill="#ddd" font-size="8" font-family="monospace">5.2</text><rect x="510" y="185" width="23" height="14" fill="#F5A623" opacity="0.9" rx="2"/><rect x="510" y="202" width="140" height="14" fill="#4A90D9" opacity="0.9" rx="2"/><text x="536.0118699330204" y="195" fill="#ddd" font-size="8" font-family="monospace">1369.6</text><text x="653" y="212" fill="#ddd" font-size="8" font-family="monospace">8332.3</text><rect x="700" y="185" width="140" height="14" fill="#F5A623" opacity="0.9" rx="2"/><rect x="700" y="202" width="46" height="14" fill="#4A90D9" opacity="0.9" rx="2"/><text x="843" y="195" fill="#ddd" font-size="8" font-family="monospace">1275.0</text><text x="748.8602538190403" y="212" fill="#ddd" font-size="8" font-family="monospace">417.7</text><rect x="890" y="185" width="140" height="14" fill="#F5A623" opacity="0.9" rx="2"/><rect x="890" y="202" width="37" height="14" fill="#4A90D9" opacity="0.9" rx="2"/><text x="1033" y="195" fill="#ddd" font-size="8" font-family="monospace">1252.8</text><text x="930.4894374651163" y="212" fill="#ddd" font-size="8" font-family="monospace">335.5</text><line x1="10" y1="265" x2="1090" y2="265" stroke="#333" stroke-width="1"/><text x="15" y="288" fill="#ddd" font-size="11" font-family="monospace" font-weight="bold">sz5gb_unpack</text><text x="15" y="302" fill="#888" font-size="9" font-family="monospace">5 GB download + 7z extraction</text><rect x="320" y="275" width="140" height="14" fill="#F5A623" opacity="0.9" rx="2"/><rect x="320" y="292" width="112" height="14" fill="#4A90D9" opacity="0.9" rx="2"/><text x="463" y="285" fill="#ddd" font-size="8" font-family="monospace">9.1</text><text x="434.99474104284093" y="302" fill="#ddd" font-size="8" font-family="monospace">7.2</text><rect x="510" y="275" width="112" height="14" fill="#F5A623" opacity="0.9" rx="2"/><rect x="510" y="292" width="140" height="14" fill="#4A90D9" opacity="0.9" rx="2"/><text x="624.9947410428409" y="285" fill="#ddd" font-size="8" font-family="monospace">4742.5</text><text x="653" y="302" fill="#ddd" font-size="8" font-family="monospace">5928.4</text><rect x="700" y="275" width="45" height="14" fill="#F5A623" opacity="0.9" rx="2"/><rect x="700" y="292" width="140" height="14" fill="#4A90D9" opacity="0.9" rx="2"/><text x="748.4687565232684" y="285" fill="#ddd" font-size="8" font-family="monospace">151.5</text><text x="843" y="302" fill="#ddd" font-size="8" font-family="monospace">466.4</text><rect x="890" y="275" width="85" height="14" fill="#F5A623" opacity="0.9" rx="2"/><rect x="890" y="292" width="140" height="14" fill="#4A90D9" opacity="0.9" rx="2"/><text x="978.1608904498735" y="285" fill="#ddd" font-size="8" font-family="monospace">322.0</text><text x="1033" y="302" fill="#ddd" font-size="8" font-family="monospace">529.4</text><line x1="10" y1="355" x2="1090" y2="355" stroke="#333" stroke-width="1"/><text x="15" y="378" fill="#ddd" font-size="11" font-family="monospace" font-weight="bold">sz10gb_raw</text><text x="15" y="392" fill="#888" font-size="9" font-family="monospace">10 GB raw download</text><rect x="320" y="365" width="140" height="14" fill="#F5A623" opacity="0.9" rx="2"/><rect x="320" y="382" width="114" height="14" fill="#4A90D9" opacity="0.9" rx="2"/><text x="463" y="375" fill="#ddd" font-size="8" font-family="monospace">10.1</text><text x="437.4072415134476" y="392" fill="#ddd" font-size="8" font-family="monospace">8.2</text><rect x="510" y="365" width="114" height="14" fill="#F5A623" opacity="0.9" rx="2"/><rect x="510" y="382" width="140" height="14" fill="#4A90D9" opacity="0.9" rx="2"/><text x="627.4072415134476" y="375" fill="#ddd" font-size="8" font-family="monospace">8525.4</text><text x="653" y="392" fill="#ddd" font-size="8" font-family="monospace">10432.5</text><rect x="700" y="365" width="47" height="14" fill="#F5A623" opacity="0.9" rx="2"/><rect x="700" y="382" width="140" height="14" fill="#4A90D9" opacity="0.9" rx="2"/><text x="749.94130676096" y="375" fill="#ddd" font-size="8" font-family="monospace">154.2</text><text x="843" y="392" fill="#ddd" font-size="8" font-family="monospace">459.8</text><rect x="890" y="365" width="72" height="14" fill="#F5A623" opacity="0.9" rx="2"/><rect x="890" y="382" width="140" height="14" fill="#4A90D9" opacity="0.9" rx="2"/><text x="965.0735093711334" y="375" fill="#ddd" font-size="8" font-family="monospace">352.7</text><text x="1033" y="392" fill="#ddd" font-size="8" font-family="monospace">685.1</text><line x1="10" y1="445" x2="1090" y2="445" stroke="#333" stroke-width="1"/><text x="15" y="468" fill="#ddd" font-size="11" font-family="monospace" font-weight="bold">sz10gb_par2</text><text x="15" y="482" fill="#888" font-size="9" font-family="monospace">10 GB download + par2 repair (3% missing)</text><rect x="320" y="455" width="140" height="14" fill="#F5A623" opacity="0.9" rx="2"/><rect x="320" y="472" width="15" height="14" fill="#4A90D9" opacity="0.9" rx="2"/><text x="463" y="465" fill="#ddd" font-size="8" font-family="monospace">77.5</text><text x="338.4094433289641" y="482" fill="#ddd" font-size="8" font-family="monospace">8.5</text><rect x="510" y="455" width="15" height="14" fill="#F5A623" opacity="0.9" rx="2"/><rect x="510" y="472" width="140" height="14" fill="#4A90D9" opacity="0.9" rx="2"/><text x="528.4094433289641" y="465" fill="#ddd" font-size="8" font-family="monospace">1108.1</text><text x="653" y="482" fill="#ddd" font-size="8" font-family="monospace">10067.9</text><rect x="700" y="455" width="140" height="14" fill="#F5A623" opacity="0.9" rx="2"/><rect x="700" y="472" width="49" height="14" fill="#4A90D9" opacity="0.9" rx="2"/><text x="843" y="465" fill="#ddd" font-size="8" font-family="monospace">1355.7</text><text x="751.5890824083251" y="482" fill="#ddd" font-size="8" font-family="monospace">470.5</text><rect x="890" y="455" width="140" height="14" fill="#F5A623" opacity="0.9" rx="2"/><rect x="890" y="472" width="63" height="14" fill="#4A90D9" opacity="0.9" rx="2"/><text x="1033" y="465" fill="#ddd" font-size="8" font-family="monospace">1416.1</text><text x="955.9292500193095" y="482" fill="#ddd" font-size="8" font-family="monospace">636.5</text><line x1="10" y1="535" x2="1090" y2="535" stroke="#333" stroke-width="1"/><text x="15" y="558" fill="#ddd" font-size="11" font-family="monospace" font-weight="bold">sz10gb_unpack</text><text x="15" y="572" fill="#888" font-size="9" font-family="monospace">10 GB download + 7z extraction</text><rect x="320" y="545" width="140" height="14" fill="#F5A623" opacity="0.9" rx="2"/><rect x="320" y="562" width="125" height="14" fill="#4A90D9" opacity="0.9" rx="2"/><text x="463" y="555" fill="#ddd" font-size="8" font-family="monospace">17.1</text><text x="447.85906739634396" y="572" fill="#ddd" font-size="8" font-family="monospace">15.3</text><rect x="510" y="545" width="125" height="14" fill="#F5A623" opacity="0.9" rx="2"/><rect x="510" y="562" width="140" height="14" fill="#4A90D9" opacity="0.9" rx="2"/><text x="637.859067396344" y="555" fill="#ddd" font-size="8" font-family="monospace">5021.3</text><text x="653" y="572" fill="#ddd" font-size="8" font-family="monospace">5630.2</text><rect x="700" y="545" width="46" height="14" fill="#F5A623" opacity="0.9" rx="2"/><rect x="700" y="562" width="140" height="14" fill="#4A90D9" opacity="0.9" rx="2"/><text x="749.4484260212403" y="555" fill="#ddd" font-size="8" font-family="monospace">154.6</text><text x="843" y="572" fill="#ddd" font-size="8" font-family="monospace">465.9</text><rect x="890" y="545" width="106" height="14" fill="#F5A623" opacity="0.9" rx="2"/><rect x="890" y="562" width="140" height="14" fill="#4A90D9" opacity="0.9" rx="2"/><text x="998.8624923543937" y="555" fill="#ddd" font-size="8" font-family="monospace">651.9</text><text x="1033" y="572" fill="#ddd" font-size="8" font-family="monospace">862.2</text></svg>