<svg xmlns="http://www.w3.org/2000/svg" width="850" height="880" style="background:#1a1a2e">
<text x="425" y="28" fill="#ddd" font-size="16" text-anchor="middle" font-family="monospace" font-weight="bold">sz10gb_unpack — Time Series</text>
<text x="425" y="48" fill="#888" font-size="12" text-anchor="middle" font-family="monospace">10 GB download + 7z extraction</text>
<text x="630" y="66" fill="#F5A623" font-size="11" font-family="monospace">— SABnzbd</text>
<text x="740" y="66" fill="#4A90D9" font-size="11" font-family="monospace">— rustnzbd</text><rect x="70" y="75" width="750" height="160" fill="#16213e" rx="4"/><text x="445" y="67" fill="#ddd" font-size="13" text-anchor="middle" font-family="monospace" font-weight="bold">CPU (%)</text><line x1="70" y1="235" x2="820" y2="235" stroke="#333" stroke-width="0.5"/><text x="66" y="238" fill="#888" font-size="8" text-anchor="end" font-family="monospace">0</text><line x1="70" y1="198" x2="820" y2="198" stroke="#333" stroke-width="0.5"/><text x="66" y="200.5" fill="#888" font-size="8" text-anchor="end" font-family="monospace">97</text><line x1="70" y1="160" x2="820" y2="160" stroke="#333" stroke-width="0.5"/><text x="66" y="163" fill="#888" font-size="8" text-anchor="end" font-family="monospace">194</text><line x1="70" y1="122" x2="820" y2="122" stroke="#333" stroke-width="0.5"/><text x="66" y="125.5" fill="#888" font-size="8" text-anchor="end" font-family="monospace">292</text><line x1="70" y1="85" x2="820" y2="85" stroke="#333" stroke-width="0.5"/><text x="66" y="88" fill="#888" font-size="8" text-anchor="end" font-family="monospace">389</text><polyline points="70.0,185.8 109.5,190.8 149.0,187.9 188.5,193.0 227.9,194.3 267.4,196.9 306.9,185.5 346.5,201.5 386.1,176.2 425.6,176.2 465.1,200.9 504.5,184.8 544.0,188.1 583.4,198.3 622.8,200.9 662.3,201.9 701.7,199.4 741.1,202.2 780.6,198.8 820.0,209.7" fill="none" stroke="#F5A623" stroke-width="2" opacity="0.9"/><polyline points="70.0,89.7 109.5,85.0 149.1,96.0 188.5,160.4 228.0,101.5 267.4,152.1 306.8,124.4 346.2,174.2 385.7,188.5 425.2,186.3 464.7,151.3 504.1,95.9 543.5,137.0" fill="none" stroke="#4A90D9" stroke-width="2" opacity="0.9"/><rect x="70" y="275" width="750" height="160" fill="#16213e" rx="4"/><text x="445" y="267" fill="#ddd" font-size="13" text-anchor="middle" font-family="monospace" font-weight="bold">Memory (MB)</text><line x1="70" y1="435" x2="820" y2="435" stroke="#333" stroke-width="0.5"/><text x="66" y="438" fill="#888" font-size="8" text-anchor="end" font-family="monospace">0</text><line x1="70" y1="398" x2="820" y2="398" stroke="#333" stroke-width="0.5"/><text x="66" y="400.5" fill="#888" font-size="8" text-anchor="end" font-family="monospace">163</text><line x1="70" y1="360" x2="820" y2="360" stroke="#333" stroke-width="0.5"/><text x="66" y="363" fill="#888" font-size="8" text-anchor="end" font-family="monospace">326</text><line x1="70" y1="322" x2="820" y2="322" stroke="#333" stroke-width="0.5"/><text x="66" y="325.5" fill="#888" font-size="8" text-anchor="end" font-family="monospace">489</text><line x1="70" y1="285" x2="820" y2="285" stroke="#333" stroke-width="0.5"/><text x="66" y="288" fill="#888" font-size="8" text-anchor="end" font-family="monospace">652</text><polyline points="70.0,402.5 109.5,393.7 149.0,389.1 188.5,385.7 227.9,377.9 267.4,375.5 306.9,372.5 346.5,360.7 386.1,357.7 425.6,357.0 465.1,350.8 504.5,347.3 544.0,346.9 583.4,338.5 622.8,327.4 662.3,317.2 701.7,305.6 741.1,294.9 780.6,285.0 820.0,347.6" fill="none" stroke="#F5A623" stroke-width="2" opacity="0.9"/><polyline points="70.0,391.5 109.5,386.1 149.1,380.9 188.5,375.1 228.0,369.8 267.4,365.2 306.8,360.5 346.2,356.5 385.7,352.0 425.2,350.5 464.7,343.9 504.1,335.3 543.5,332.2" fill="none" stroke="#4A90D9" stroke-width="2" opacity="0.9"/><rect x="70" y="475" width="750" height="160" fill="#16213e" rx="4"/><text x="445" y="467" fill="#ddd" font-size="13" text-anchor="middle" font-family="monospace" font-weight="bold">Net RX (Mbps)</text><line x1="70" y1="635" x2="820" y2="635" stroke="#333" stroke-width="0.5"/><text x="66" y="638" fill="#888" font-size="8" text-anchor="end" font-family="monospace">0</text><line x1="70" y1="598" x2="820" y2="598" stroke="#333" stroke-width="0.5"/><text x="66" y="600.5" fill="#888" font-size="8" text-anchor="end" font-family="monospace">2639</text><line x1="70" y1="560" x2="820" y2="560" stroke="#333" stroke-width="0.5"/><text x="66" y="563" fill="#888" font-size="8" text-anchor="end" font-family="monospace">5277</text><line x1="70" y1="522" x2="820" y2="522" stroke="#333" stroke-width="0.5"/><text x="66" y="525.5" fill="#888" font-size="8" text-anchor="end" font-family="monospace">7916</text><line x1="70" y1="485" x2="820" y2="485" stroke="#333" stroke-width="0.5"/><text x="66" y="488" fill="#888" font-size="8" text-anchor="end" font-family="monospace">10554</text><polyline points="70.0,523.0 109.5,542.5 149.0,516.8 188.5,531.0 227.9,561.7 267.4,550.0 306.9,530.2 346.5,564.2 386.1,535.2 425.6,518.8 465.1,556.7 504.5,514.7 544.0,552.6 583.4,635.0 622.8,635.0 662.3,635.0 701.7,635.0 741.1,635.0 780.6,635.0 820.0,635.0" fill="none" stroke="#F5A623" stroke-width="2" opacity="0.9"/><polyline points="70.0,485.3 109.5,486.5 149.1,507.3 188.5,559.3 228.0,529.0 267.4,548.8 306.8,521.6 346.2,554.9 385.7,565.2 425.2,572.4 464.7,540.6 504.1,485.0 543.5,540.3" fill="none" stroke="#4A90D9" stroke-width="2" opacity="0.9"/><rect x="70" y="675" width="750" height="160" fill="#16213e" rx="4"/><text x="445" y="667" fill="#ddd" font-size="13" text-anchor="middle" font-family="monospace" font-weight="bold">Disk Write (MB/s)</text><line x1="70" y1="835" x2="820" y2="835" stroke="#333" stroke-width="0.5"/><text x="66" y="838" fill="#888" font-size="8" text-anchor="end" font-family="monospace">0</text><line x1="70" y1="798" x2="820" y2="798" stroke="#333" stroke-width="0.5"/><text x="66" y="800.5" fill="#888" font-size="8" text-anchor="end" font-family="monospace">439</text><line x1="70" y1="760" x2="820" y2="760" stroke="#333" stroke-width="0.5"/><text x="66" y="763" fill="#888" font-size="8" text-anchor="end" font-family="monospace">879</text><line x1="70" y1="722" x2="820" y2="722" stroke="#333" stroke-width="0.5"/><text x="66" y="725.5" fill="#888" font-size="8" text-anchor="end" font-family="monospace">1318</text><line x1="70" y1="685" x2="820" y2="685" stroke="#333" stroke-width="0.5"/><text x="66" y="688" fill="#888" font-size="8" text-anchor="end" font-family="monospace">1757</text><polyline points="70.0,834.9 109.5,757.6 149.0,788.0 188.5,774.4 227.9,779.2 267.4,823.1 306.9,806.8 346.5,774.7 386.1,802.8 425.6,835.0 465.1,710.1 504.5,799.6 544.0,740.9 583.4,737.7 622.8,708.3 662.3,700.4 701.7,694.5 741.1,708.9 780.6,717.1 820.0,700.1" fill="none" stroke="#F5A623" stroke-width="2" opacity="0.9"/><polyline points="70.0,835.0 109.5,835.0 149.1,834.9 188.5,722.4 228.0,807.1 267.4,737.5 306.8,786.0 346.2,734.1 385.7,706.4 425.2,685.0 464.7,797.2 504.1,835.0 543.5,834.3" fill="none" stroke="#4A90D9" stroke-width="2" opacity="0.9"/></svg>