<svg xmlns="http://www.w3.org/2000/svg" width="850" height="880" style="background:#1a1a2e">
<text x="425" y="28" fill="#ddd" font-size="16" text-anchor="middle" font-family="monospace" font-weight="bold">sz10gb_par2 — Time Series</text>
<text x="425" y="48" fill="#888" font-size="12" text-anchor="middle" font-family="monospace">10 GB download + par2 repair (3% missing)</text>
<text x="630" y="66" fill="#F5A623" font-size="11" font-family="monospace">— SABnzbd</text>
<text x="740" y="66" fill="#4A90D9" font-size="11" font-family="monospace">— rustnzbd</text><rect x="70" y="75" width="750" height="160" fill="#16213e" rx="4"/><text x="445" y="67" fill="#ddd" font-size="13" text-anchor="middle" font-family="monospace" font-weight="bold">CPU (%)</text><line x1="70" y1="235" x2="820" y2="235" stroke="#333" stroke-width="0.5"/><text x="66" y="238" fill="#888" font-size="8" text-anchor="end" font-family="monospace">0</text><line x1="70" y1="198" x2="820" y2="198" stroke="#333" stroke-width="0.5"/><text x="66" y="200.5" fill="#888" font-size="8" text-anchor="end" font-family="monospace">118</text><line x1="70" y1="160" x2="820" y2="160" stroke="#333" stroke-width="0.5"/><text x="66" y="163" fill="#888" font-size="8" text-anchor="end" font-family="monospace">237</text><line x1="70" y1="122" x2="820" y2="122" stroke="#333" stroke-width="0.5"/><text x="66" y="125.5" fill="#888" font-size="8" text-anchor="end" font-family="monospace">355</text><line x1="70" y1="85" x2="820" y2="85" stroke="#333" stroke-width="0.5"/><text x="66" y="88" fill="#888" font-size="8" text-anchor="end" font-family="monospace">473</text><polyline points="70.0,199.2 79.2,199.0 88.3,214.3 97.5,203.9 106.6,203.4 115.8,203.5 124.9,203.5 134.1,203.7 143.2,203.6 152.4,203.7 161.5,203.2 170.7,204.0 179.8,203.8 189.0,203.2 198.1,203.8 207.3,212.9 216.4,210.1 225.6,212.7 234.7,206.9 243.9,204.4 253.0,202.8 262.2,202.7 271.3,203.0 280.4,203.0 289.6,203.0 298.7,202.8 307.9,203.1 317.0,203.0 326.2,203.0 335.3,203.0 344.5,203.1 353.6,202.9 362.8,202.9 371.9,203.0 381.0,203.0 390.2,203.1 399.3,202.7 408.5,203.0 417.7,202.9 426.8,203.0 435.9,202.9 445.1,203.0 454.2,202.9 463.4,203.0 472.5,203.0 481.6,203.0 490.8,202.5 499.9,203.0 509.1,203.0 518.2,202.9 527.4,203.0 536.5,203.0 545.6,202.9 554.8,203.1 563.9,202.9 573.1,202.9 582.2,203.0 591.4,202.9 600.5,202.4 609.7,202.8 618.8,203.1 628.0,202.8 637.1,203.0 646.2,203.0 655.4,202.8 664.5,202.9 673.7,202.9 682.8,203.0 692.0,203.1 701.1,202.9 710.3,202.9 719.4,202.8 728.5,203.0 737.7,202.9 746.8,202.9 756.0,203.0 765.1,203.0 774.3,203.0 783.4,202.9 792.6,202.8 801.7,203.0 810.9,202.9 820.0,202.7" fill="none" stroke="#F5A623" stroke-width="2" opacity="0.9"/><polyline points="70.0,87.6 79.2,104.7 88.3,116.0 97.5,91.9 106.7,166.2 115.8,132.0 125.1,91.3 134.2,85.0 143.4,127.1 152.5,234.8" fill="none" stroke="#4A90D9" stroke-width="2" opacity="0.9"/><rect x="70" y="275" width="750" height="160" fill="#16213e" rx="4"/><text x="445" y="267" fill="#ddd" font-size="13" text-anchor="middle" font-family="monospace" font-weight="bold">Memory (MB)</text><line x1="70" y1="435" x2="820" y2="435" stroke="#333" stroke-width="0.5"/><text x="66" y="438" fill="#888" font-size="8" text-anchor="end" font-family="monospace">0</text><line x1="70" y1="398" x2="820" y2="398" stroke="#333" stroke-width="0.5"/><text x="66" y="400.5" fill="#888" font-size="8" text-anchor="end" font-family="monospace">358</text><line x1="70" y1="360" x2="820" y2="360" stroke="#333" stroke-width="0.5"/><text x="66" y="363" fill="#888" font-size="8" text-anchor="end" font-family="monospace">715</text><line x1="70" y1="322" x2="820" y2="322" stroke="#333" stroke-width="0.5"/><text x="66" y="325.5" fill="#888" font-size="8" text-anchor="end" font-family="monospace">1073</text><line x1="70" y1="285" x2="820" y2="285" stroke="#333" stroke-width="0.5"/><text x="66" y="288" fill="#888" font-size="8" text-anchor="end" font-family="monospace">1430</text><polyline points="70.0,404.0 79.2,328.6 88.3,311.9 97.5,308.9 106.6,306.1 115.8,303.0 124.9,300.9 134.1,297.8 143.2,294.9 152.4,292.7 161.5,290.5 170.7,287.7 179.8,285.0 189.0,390.9 198.1,391.2 207.3,391.5 216.4,391.9 225.6,392.2 234.7,392.5 243.9,392.4 253.0,391.4 262.2,391.4 271.3,391.5 280.4,391.4 289.6,391.4 298.7,391.5 307.9,391.4 317.0,391.3 326.2,391.4 335.3,391.5 344.5,391.5 353.6,391.4 362.8,391.4 371.9,391.5 381.0,391.5 390.2,391.5 399.3,391.5 408.5,391.4 417.7,391.5 426.8,391.5 435.9,391.5 445.1,391.4 454.2,391.5 463.4,391.5 472.5,391.5 481.6,391.5 490.8,391.4 499.9,391.4 509.1,391.4 518.2,391.4 527.4,391.4 536.5,391.5 545.6,391.3 554.8,391.4 563.9,391.5 573.1,391.5 582.2,391.4 591.4,391.4 600.5,391.7 609.7,391.8 618.8,391.8 628.0,391.7 637.1,391.7 646.2,391.7 655.4,391.7 664.5,391.7 673.7,391.7 682.8,391.8 692.0,391.8 701.1,391.8 710.3,391.7 719.4,391.8 728.5,391.7 737.7,391.7 746.8,391.8 756.0,391.8 765.1,391.8 774.3,391.7 783.4,391.8 792.6,391.8 801.7,391.8 810.9,391.8 820.0,391.7" fill="none" stroke="#F5A623" stroke-width="2" opacity="0.9"/><polyline points="70.0,418.6 79.2,414.4 88.3,410.3 97.5,406.4 106.7,404.3 115.8,401.4 125.1,397.7 134.2,394.0 143.4,391.6 152.5,391.7" fill="none" stroke="#4A90D9" stroke-width="2" opacity="0.9"/><rect x="70" y="475" width="750" height="160" fill="#16213e" rx="4"/><text x="445" y="467" fill="#ddd" font-size="13" text-anchor="middle" font-family="monospace" font-weight="bold">Net RX (Mbps)</text><line x1="70" y1="635" x2="820" y2="635" stroke="#333" stroke-width="0.5"/><text x="66" y="638" fill="#888" font-size="8" text-anchor="end" font-family="monospace">0</text><line x1="70" y1="598" x2="820" y2="598" stroke="#333" stroke-width="0.5"/><text x="66" y="600.5" fill="#888" font-size="8" text-anchor="end" font-family="monospace">3078</text><line x1="70" y1="560" x2="820" y2="560" stroke="#333" stroke-width="0.5"/><text x="66" y="563" fill="#888" font-size="8" text-anchor="end" font-family="monospace">6155</text><line x1="70" y1="522" x2="820" y2="522" stroke="#333" stroke-width="0.5"/><text x="66" y="525.5" fill="#888" font-size="8" text-anchor="end" font-family="monospace">9233</text><line x1="70" y1="485" x2="820" y2="485" stroke="#333" stroke-width="0.5"/><text x="66" y="488" fill="#888" font-size="8" text-anchor="end" font-family="monospace">12310</text><polyline points="70.0,559.2 79.2,529.5 88.3,577.2 97.5,538.1 106.6,539.5 115.8,546.5 124.9,557.2 134.1,540.5 143.2,538.5 152.4,562.6 161.5,567.3 170.7,538.4 179.8,540.5 189.0,622.3 198.1,635.0 207.3,635.0 216.4,635.0 225.6,635.0 234.7,635.0 243.9,635.0 253.0,635.0 262.2,635.0 271.3,635.0 280.4,635.0 289.6,635.0 298.7,635.0 307.9,635.0 317.0,635.0 326.2,635.0 335.3,635.0 344.5,635.0 353.6,635.0 362.8,635.0 371.9,635.0 381.0,635.0 390.2,635.0 399.3,635.0 408.5,635.0 417.7,635.0 426.8,635.0 435.9,635.0 445.1,635.0 454.2,635.0 463.4,635.0 472.5,635.0 481.6,635.0 490.8,635.0 499.9,635.0 509.1,635.0 518.2,635.0 527.4,635.0 536.5,635.0 545.6,635.0 554.8,635.0 563.9,635.0 573.1,635.0 582.2,635.0 591.4,635.0 600.5,635.0 609.7,635.0 618.8,635.0 628.0,635.0 637.1,635.0 646.2,635.0 655.4,635.0 664.5,635.0 673.7,635.0 682.8,635.0 692.0,635.0 701.1,635.0 710.3,635.0 719.4,635.0 728.5,635.0 737.7,635.0 746.8,635.0 756.0,635.0 765.1,635.0 774.3,635.0 783.4,635.0 792.6,635.0 801.7,635.0 810.9,635.0 820.0,635.0" fill="none" stroke="#F5A623" stroke-width="2" opacity="0.9"/><polyline points="70.0,485.0 79.2,490.9 88.3,494.5 97.5,505.3 106.7,557.3 115.8,541.1 125.1,499.3 134.2,495.5 143.4,515.8 152.5,635.0" fill="none" stroke="#4A90D9" stroke-width="2" opacity="0.9"/><rect x="70" y="675" width="750" height="160" fill="#16213e" rx="4"/><text x="445" y="667" fill="#ddd" font-size="13" text-anchor="middle" font-family="monospace" font-weight="bold">Disk Write (MB/s)</text><line x1="70" y1="835" x2="820" y2="835" stroke="#333" stroke-width="0.5"/><text x="66" y="838" fill="#888" font-size="8" text-anchor="end" font-family="monospace">0</text><line x1="70" y1="798" x2="820" y2="798" stroke="#333" stroke-width="0.5"/><text x="66" y="800.5" fill="#888" font-size="8" text-anchor="end" font-family="monospace">383</text><line x1="70" y1="760" x2="820" y2="760" stroke="#333" stroke-width="0.5"/><text x="66" y="763" fill="#888" font-size="8" text-anchor="end" font-family="monospace">767</text><line x1="70" y1="722" x2="820" y2="722" stroke="#333" stroke-width="0.5"/><text x="66" y="725.5" fill="#888" font-size="8" text-anchor="end" font-family="monospace">1150</text><line x1="70" y1="685" x2="820" y2="685" stroke="#333" stroke-width="0.5"/><text x="66" y="688" fill="#888" font-size="8" text-anchor="end" font-family="monospace">1533</text><polyline points="70.0,834.9 79.2,835.0 88.3,714.1 97.5,744.7 106.6,746.4 115.8,752.5 124.9,762.6 134.1,747.1 143.2,745.2 152.4,767.6 161.5,772.0 170.7,745.0 179.8,747.1 189.0,821.9 198.1,793.9 207.3,687.1 216.4,685.0 225.6,696.9 234.7,790.3 243.9,716.2 253.0,823.5 262.2,835.0 271.3,835.0 280.4,835.0 289.6,835.0 298.7,835.0 307.9,835.0 317.0,790.1 326.2,835.0 335.3,835.0 344.5,835.0 353.6,835.0 362.8,835.0 371.9,835.0 381.0,835.0 390.2,835.0 399.3,835.0 408.5,835.0 417.7,835.0 426.8,835.0 435.9,835.0 445.1,835.0 454.2,835.0 463.4,789.2 472.5,835.0 481.6,835.0 490.8,835.0 499.9,835.0 509.1,789.0 518.2,835.0 527.4,835.0 536.5,835.0 545.6,835.0 554.8,835.0 563.9,835.0 573.1,835.0 582.2,835.0 591.4,835.0 600.5,835.0 609.7,835.0 618.8,835.0 628.0,835.0 637.1,835.0 646.2,835.0 655.4,788.0 664.5,835.0 673.7,835.0 682.8,835.0 692.0,734.0 701.1,803.1 710.3,835.0 719.4,835.0 728.5,835.0 737.7,835.0 746.8,835.0 756.0,834.9 765.1,835.0 774.3,835.0 783.4,835.0 792.6,835.0 801.7,835.0 810.9,835.0 820.0,835.0" fill="none" stroke="#F5A623" stroke-width="2" opacity="0.9"/><polyline points="70.0,835.0 79.2,835.0 88.3,761.4 97.5,731.0 106.7,745.7 115.8,760.5 125.1,705.6 134.2,714.5 143.4,700.8 152.5,835.0" fill="none" stroke="#4A90D9" stroke-width="2" opacity="0.9"/></svg>