<svg xmlns="http://www.w3.org/2000/svg" width="850" height="880" style="background:#1a1a2e">
<text x="425" y="28" fill="#ddd" font-size="16" text-anchor="middle" font-family="monospace" font-weight="bold">sz5gb_par2 — Time Series</text>
<text x="425" y="48" fill="#888" font-size="12" text-anchor="middle" font-family="monospace">5 GB download + par2 repair (3% missing)</text>
<text x="630" y="66" fill="#F5A623" font-size="11" font-family="monospace">— SABnzbd</text>
<text x="740" y="66" fill="#4A90D9" font-size="11" font-family="monospace">— rustnzbd</text><rect x="70" y="75" width="750" height="160" fill="#16213e" rx="4"/><text x="445" y="67" fill="#ddd" font-size="13" text-anchor="middle" font-family="monospace" font-weight="bold">CPU (%)</text><line x1="70" y1="235" x2="820" y2="235" stroke="#333" stroke-width="0.5"/><text x="66" y="238" fill="#888" font-size="8" text-anchor="end" font-family="monospace">0</text><line x1="70" y1="198" x2="820" y2="198" stroke="#333" stroke-width="0.5"/><text x="66" y="200.5" fill="#888" font-size="8" text-anchor="end" font-family="monospace">152</text><line x1="70" y1="160" x2="820" y2="160" stroke="#333" stroke-width="0.5"/><text x="66" y="163" fill="#888" font-size="8" text-anchor="end" font-family="monospace">304</text><line x1="70" y1="122" x2="820" y2="122" stroke="#333" stroke-width="0.5"/><text x="66" y="125.5" fill="#888" font-size="8" text-anchor="end" font-family="monospace">456</text><line x1="70" y1="85" x2="820" y2="85" stroke="#333" stroke-width="0.5"/><text x="66" y="88" fill="#888" font-size="8" text-anchor="end" font-family="monospace">608</text><polyline points="70.0,208.2 95.0,211.9 120.0,211.7 145.0,211.5 170.1,212.5 195.1,211.2 220.1,210.1 245.1,211.5 270.0,222.9 295.0,234.7 320.0,210.0 345.0,210.0 370.0,210.1 395.0,210.1 420.0,210.1 445.0,210.1 470.0,209.9 495.0,210.0 520.0,210.1 545.0,210.0 570.0,210.0 595.0,210.1 620.0,210.0 645.0,210.0 670.0,210.1 695.0,210.1 720.0,210.1 745.0,210.0 770.0,210.1 795.0,210.0 820.0,215.9" fill="none" stroke="#F5A623" stroke-width="2" opacity="0.9"/><polyline points="70.0,125.5 95.1,105.8 120.1,85.0 145.1,122.2" fill="none" stroke="#4A90D9" stroke-width="2" opacity="0.9"/><rect x="70" y="275" width="750" height="160" fill="#16213e" rx="4"/><text x="445" y="267" fill="#ddd" font-size="13" text-anchor="middle" font-family="monospace" font-weight="bold">Memory (MB)</text><line x1="70" y1="435" x2="820" y2="435" stroke="#333" stroke-width="0.5"/><text x="66" y="438" fill="#888" font-size="8" text-anchor="end" font-family="monospace">0</text><line x1="70" y1="398" x2="820" y2="398" stroke="#333" stroke-width="0.5"/><text x="66" y="400.5" fill="#888" font-size="8" text-anchor="end" font-family="monospace">312</text><line x1="70" y1="360" x2="820" y2="360" stroke="#333" stroke-width="0.5"/><text x="66" y="363" fill="#888" font-size="8" text-anchor="end" font-family="monospace">625</text><line x1="70" y1="322" x2="820" y2="322" stroke="#333" stroke-width="0.5"/><text x="66" y="325.5" fill="#888" font-size="8" text-anchor="end" font-family="monospace">937</text><line x1="70" y1="285" x2="820" y2="285" stroke="#333" stroke-width="0.5"/><text x="66" y="288" fill="#888" font-size="8" text-anchor="end" font-family="monospace">1250</text><polyline points="70.0,363.4 95.0,294.9 120.0,291.7 145.0,288.3 170.1,285.0 195.1,396.2 220.1,404.6 245.1,405.2 270.0,405.4 295.0,405.1 320.0,404.4 345.0,404.3 370.0,404.3 395.0,404.3 420.0,404.3 445.0,404.3 470.0,404.3 495.0,404.3 520.0,404.2 545.0,404.2 570.0,404.3 595.0,404.3 620.0,404.2 645.0,404.2 670.0,404.3 695.0,404.3 720.0,404.3 745.0,404.3 770.0,404.3 795.0,404.3 820.0,407.1" fill="none" stroke="#F5A623" stroke-width="2" opacity="0.9"/><polyline points="70.0,421.9 95.1,417.4 120.1,412.8 145.1,407.8" fill="none" stroke="#4A90D9" stroke-width="2" opacity="0.9"/><rect x="70" y="475" width="750" height="160" fill="#16213e" rx="4"/><text x="445" y="467" fill="#ddd" font-size="13" text-anchor="middle" font-family="monospace" font-weight="bold">Net RX (Mbps)</text><line x1="70" y1="635" x2="820" y2="635" stroke="#333" stroke-width="0.5"/><text x="66" y="638" fill="#888" font-size="8" text-anchor="end" font-family="monospace">0</text><line x1="70" y1="598" x2="820" y2="598" stroke="#333" stroke-width="0.5"/><text x="66" y="600.5" fill="#888" font-size="8" text-anchor="end" font-family="monospace">3327</text><line x1="70" y1="560" x2="820" y2="560" stroke="#333" stroke-width="0.5"/><text x="66" y="563" fill="#888" font-size="8" text-anchor="end" font-family="monospace">6653</text><line x1="70" y1="522" x2="820" y2="522" stroke="#333" stroke-width="0.5"/><text x="66" y="525.5" fill="#888" font-size="8" text-anchor="end" font-family="monospace">9980</text><line x1="70" y1="485" x2="820" y2="485" stroke="#333" stroke-width="0.5"/><text x="66" y="488" fill="#888" font-size="8" text-anchor="end" font-family="monospace">13307</text><polyline points="70.0,546.0 95.0,528.0 120.0,545.7 145.0,541.6 170.1,547.7 195.1,577.0 220.1,635.0 245.1,635.0 270.0,635.0 295.0,635.0 320.0,635.0 345.0,635.0 370.0,635.0 395.0,635.0 420.0,635.0 445.0,635.0 470.0,635.0 495.0,635.0 520.0,635.0 545.0,635.0 570.0,635.0 595.0,635.0 620.0,635.0 645.0,635.0 670.0,635.0 695.0,635.0 720.0,635.0 745.0,635.0 770.0,635.0 795.0,635.0 820.0,635.0" fill="none" stroke="#F5A623" stroke-width="2" opacity="0.9"/><polyline points="70.0,500.8 95.1,512.6 120.1,528.9 145.1,485.0" fill="none" stroke="#4A90D9" stroke-width="2" opacity="0.9"/><rect x="70" y="675" width="750" height="160" fill="#16213e" rx="4"/><text x="445" y="667" fill="#ddd" font-size="13" text-anchor="middle" font-family="monospace" font-weight="bold">Disk Write (MB/s)</text><line x1="70" y1="835" x2="820" y2="835" stroke="#333" stroke-width="0.5"/><text x="66" y="838" fill="#888" font-size="8" text-anchor="end" font-family="monospace">0</text><line x1="70" y1="798" x2="820" y2="798" stroke="#333" stroke-width="0.5"/><text x="66" y="800.5" fill="#888" font-size="8" text-anchor="end" font-family="monospace">375</text><line x1="70" y1="760" x2="820" y2="760" stroke="#333" stroke-width="0.5"/><text x="66" y="763" fill="#888" font-size="8" text-anchor="end" font-family="monospace">751</text><line x1="70" y1="722" x2="820" y2="722" stroke="#333" stroke-width="0.5"/><text x="66" y="725.5" fill="#888" font-size="8" text-anchor="end" font-family="monospace">1126</text><line x1="70" y1="685" x2="820" y2="685" stroke="#333" stroke-width="0.5"/><text x="66" y="688" fill="#888" font-size="8" text-anchor="end" font-family="monospace">1501</text><polyline points="70.0,834.9 95.0,779.4 120.0,743.2 145.0,739.0 170.1,745.4 195.1,774.1 220.1,835.0 245.1,735.2 270.0,723.9 295.0,835.0 320.0,835.0 345.0,835.0 370.0,835.0 395.0,823.8 420.0,809.8 445.0,835.0 470.0,835.0 495.0,835.0 520.0,835.0 545.0,835.0 570.0,835.0 595.0,835.0 620.0,835.0 645.0,835.0 670.0,798.9 695.0,835.0 720.0,835.0 745.0,835.0 770.0,835.0 795.0,835.0 820.0,799.5" fill="none" stroke="#F5A623" stroke-width="2" opacity="0.9"/><polyline points="70.0,835.0 95.1,834.9 120.1,824.7 145.1,685.0" fill="none" stroke="#4A90D9" stroke-width="2" opacity="0.9"/></svg>